<svg width="279" height="260" viewBox="0 0 279 260" fill="none" xmlns="http://www.w3.org/2000/svg">
<path d="M96.5 45.0697V124.07C96.5 125.727 97.8431 127.07 99.5 127.07H175.5C177.157 127.07 178.5 125.727 178.5 124.07V45.0697M98.5 45.0697H176.5H181H94" stroke="black" stroke-width="5"/>
<path d="M142.279 9.15955C144.822 9.28004 147.331 9.52265 149.804 9.87927L149.519 11.8568C151.969 12.2103 154.381 12.6804 156.748 13.2601L157.223 11.3177C159.686 11.921 162.103 12.6405 164.467 13.4701L163.806 15.3568C166.134 16.1738 168.41 17.1004 170.626 18.1302L171.468 16.3168C173.761 17.3826 175.993 18.5567 178.157 19.8314L177.144 21.5541C179.264 22.8035 181.318 24.1528 183.298 25.5951L184.475 23.9799C186.515 25.4663 188.479 27.0486 190.359 28.7211L189.031 30.2152C190.867 31.8482 192.621 33.569 194.287 35.3705L195.755 34.0121C197.466 35.8624 199.086 37.7961 200.608 39.806H200.609L199.015 41.0131C200.495 42.9676 201.88 44.9964 203.164 47.0922L204.868 46.0472C206.182 48.1916 207.391 50.4049 208.49 52.6801L206.691 53.5502C207.755 55.7515 208.712 58.0128 209.557 60.3265L211.434 59.641C212.293 61.9961 213.039 64.4048 213.664 66.8607L211.728 67.3549C212.329 69.7156 212.816 72.1213 213.183 74.5658L215.158 74.2689C215.529 76.7396 215.781 79.2486 215.906 81.7904L213.909 81.8881C213.969 83.1075 214 84.3352 214 85.5697C214 86.8042 213.969 88.0319 213.909 89.2513L215.906 89.348C215.781 91.8898 215.529 94.3988 215.158 96.8695L213.183 96.5736C212.816 99.0181 212.329 101.424 211.728 103.785L213.664 104.278C213.039 106.734 212.293 109.142 211.434 111.497L209.557 110.813C208.712 113.127 207.755 115.388 206.691 117.589L208.49 118.458C207.391 120.734 206.182 122.947 204.868 125.091L203.164 124.047C201.88 126.143 200.495 128.172 199.015 130.126L200.608 131.332C199.086 133.342 197.466 135.276 195.755 137.126L194.287 135.769C192.621 137.57 190.867 139.291 189.031 140.924L190.359 142.417C188.479 144.09 186.515 145.672 184.475 147.159L183.298 145.544C181.318 146.987 179.264 148.336 177.144 149.585L178.157 151.307C175.993 152.582 173.762 153.756 171.468 154.822L170.626 153.009C168.41 154.039 166.134 154.966 163.806 155.783L164.467 157.668C162.103 158.498 159.686 159.217 157.223 159.821L156.748 157.879C154.381 158.459 151.969 158.929 149.519 159.283L149.804 161.259C147.331 161.616 144.822 161.858 142.279 161.979L142.186 159.983C140.965 160.041 139.736 160.07 138.5 160.07C137.264 160.07 136.035 160.041 134.814 159.983L134.72 161.979C132.177 161.858 129.668 161.616 127.195 161.259L127.481 159.283C125.031 158.929 122.619 158.459 120.252 157.879L119.776 159.821C117.313 159.217 114.896 158.498 112.532 157.668L113.194 155.783C110.866 154.966 108.59 154.039 106.374 153.009L105.531 154.822C103.238 153.756 101.006 152.582 98.8418 151.307L99.8564 149.585C97.7355 148.336 95.6819 146.987 93.7021 145.544L92.5244 147.159C90.4841 145.672 88.52 144.09 86.6396 142.417L87.9688 140.924C86.1328 139.291 84.3787 137.57 82.7129 135.769L81.2441 137.126C79.5331 135.276 77.913 133.342 76.3906 131.332L77.9854 130.126C76.5049 128.172 75.1195 126.143 73.8359 124.047L72.1309 125.091C70.8175 122.947 69.608 120.734 68.5088 118.458L70.3086 117.589C69.2451 115.388 68.2877 113.127 67.4434 110.813L65.5654 111.497C64.706 109.142 63.9603 106.734 63.335 104.278L65.2725 103.785C64.6713 101.424 64.1841 99.0181 63.8174 96.5736L61.8408 96.8695C61.4702 94.3988 61.218 91.8898 61.0928 89.348L63.0908 89.2513C63.0307 88.0319 63 86.8042 63 85.5697C63 84.3352 63.0307 83.1075 63.0908 81.8881L61.0928 81.7904C61.218 79.2486 61.4702 76.7396 61.8408 74.2689L63.8174 74.5658C64.1841 72.1213 64.6713 69.7156 65.2725 67.3549L63.335 66.8607C63.9604 64.4048 64.706 61.9961 65.5654 59.641L67.4434 60.3265C68.2877 58.0128 69.2451 55.7515 70.3086 53.5502L68.5088 52.6801C69.608 50.4049 70.8175 48.1916 72.1309 46.0472L73.8359 47.0922C75.1195 44.9964 76.5049 42.9676 77.9854 41.0131L76.3906 39.806C77.913 37.7961 79.5331 35.8624 81.2441 34.0121L82.7129 35.3705C84.3787 33.569 86.1328 31.8482 87.9688 30.2152L86.6396 28.7211C88.52 27.0486 90.4842 25.4663 92.5244 23.9799L93.7021 25.5951C95.6819 24.1528 97.7355 22.8035 99.8564 21.5541L98.8418 19.8314C101.006 18.5567 103.238 17.3826 105.531 16.3168L106.374 18.1302C108.59 17.1004 110.866 16.1738 113.194 15.3568L112.532 13.4701C114.896 12.6405 117.313 11.921 119.776 11.3177L120.252 13.2601C122.619 12.6804 125.031 12.2103 127.481 11.8568L127.195 9.87927C129.668 9.52262 132.177 9.28007 134.72 9.15955L134.814 11.1566C136.035 11.0987 137.264 11.0697 138.5 11.0697C139.736 11.0697 140.965 11.0987 142.186 11.1566L142.279 9.15955Z" stroke="black" stroke-width="4" stroke-dasharray="8 8"/>
<path d="M216.931 54.9936L217.857 57.3919C225.348 76.8075 225.262 98.4665 217.72 117.862C209.626 138.673 193.404 155.487 172.846 164.203C153.36 172.465 131.449 172.945 111.62 165.544L105.848 163.39C84.0141 155.24 66.7449 138.087 58.4485 116.31C51.3949 97.7937 51.3681 77.3355 58.3731 58.8012L58.673 58.0078C66.8531 36.3646 83.6679 19.0997 105.087 10.3509L109.4 8.58938C130.507 -0.0319328 154.251 0.522167 174.933 10.1187C194.22 19.0678 209.278 35.157 216.931 54.9936Z" stroke="black" stroke-width="5"/>
<path d="M9.978 244.07C9.03933 244.07 8.25 243.75 7.61 243.11C6.97 242.47 6.65 241.68 6.65 240.742V197.414C6.65 196.432 6.97 195.643 7.61 195.046C8.25 194.406 9.03933 194.086 9.978 194.086H38.906C39.8873 194.086 40.6767 194.384 41.274 194.982C41.8713 195.536 42.17 196.283 42.17 197.222C42.17 198.118 41.8713 198.843 41.274 199.398C40.6767 199.952 39.8873 200.23 38.906 200.23H13.306V215.782H31.674C32.6553 215.782 33.4447 216.08 34.042 216.678C34.6393 217.232 34.938 217.958 34.938 218.854C34.938 219.75 34.6393 220.496 34.042 221.094C33.4447 221.648 32.6553 221.926 31.674 221.926H13.306V237.926H38.906C39.8873 237.926 40.6767 238.203 41.274 238.758C41.8713 239.312 42.17 240.038 42.17 240.934C42.17 241.872 41.8713 242.64 41.274 243.238C40.6767 243.792 39.8873 244.07 38.906 244.07H9.978ZM66.6945 244.326C63.3665 244.326 60.3585 243.558 57.6705 242.022C55.0252 240.443 52.9132 238.31 51.3345 235.622C49.7985 232.934 49.0305 229.904 49.0305 226.534C49.0305 223.163 49.7345 220.155 51.1425 217.51C52.5932 214.822 54.5558 212.71 57.0305 211.174C59.5052 209.595 62.2998 208.806 65.4145 208.806C67.9318 208.806 70.2572 209.339 72.3905 210.406C74.5238 211.43 76.3158 212.838 77.7665 214.63V197.35C77.7665 196.368 78.0652 195.579 78.6625 194.982C79.3025 194.384 80.0918 194.086 81.0305 194.086C82.0118 194.086 82.8012 194.384 83.3985 194.982C83.9958 195.579 84.2945 196.368 84.2945 197.35V226.534C84.2945 229.904 83.5052 232.934 81.9265 235.622C80.3905 238.31 78.2998 240.443 75.6545 242.022C73.0092 243.558 70.0225 244.326 66.6945 244.326ZM66.6945 238.566C68.8705 238.566 70.8118 238.054 72.5185 237.03C74.2252 235.963 75.5692 234.512 76.5505 232.678C77.5318 230.843 78.0225 228.795 78.0225 226.534C78.0225 224.23 77.5318 222.182 76.5505 220.39C75.5692 218.598 74.2252 217.19 72.5185 216.166C70.8118 215.099 68.8705 214.566 66.6945 214.566C64.5612 214.566 62.6198 215.099 60.8705 216.166C59.1638 217.19 57.7985 218.598 56.7745 220.39C55.7932 222.182 55.3025 224.23 55.3025 226.534C55.3025 228.795 55.7932 230.843 56.7745 232.678C57.7985 234.512 59.1638 235.963 60.8705 237.03C62.6198 238.054 64.5612 238.566 66.6945 238.566ZM110.543 244.39C107.599 244.39 104.953 243.771 102.607 242.534C100.303 241.254 98.4678 239.398 97.1025 236.966C95.7798 234.534 95.1185 231.547 95.1185 228.006V212.262C95.1185 211.323 95.4172 210.555 96.0145 209.958C96.6545 209.318 97.4438 208.998 98.3825 208.998C99.3212 208.998 100.089 209.318 100.687 209.958C101.327 210.555 101.647 211.323 101.647 212.262V228.006C101.647 230.395 102.095 232.379 102.991 233.958C103.887 235.494 105.103 236.646 106.639 237.414C108.175 238.139 109.903 238.502 111.823 238.502C113.657 238.502 115.279 238.139 116.687 237.414C118.137 236.688 119.289 235.707 120.143 234.47C120.996 233.232 121.423 231.846 121.423 230.31H125.455C125.455 232.955 124.793 235.344 123.471 237.478C122.191 239.611 120.42 241.296 118.159 242.534C115.94 243.771 113.401 244.39 110.543 244.39ZM124.687 244.07C123.748 244.07 122.959 243.771 122.319 243.174C121.721 242.534 121.423 241.744 121.423 240.806V212.262C121.423 211.28 121.721 210.491 122.319 209.894C122.959 209.296 123.748 208.998 124.687 208.998C125.668 208.998 126.457 209.296 127.055 209.894C127.652 210.491 127.951 211.28 127.951 212.262V240.806C127.951 241.744 127.652 242.534 127.055 243.174C126.457 243.771 125.668 244.07 124.687 244.07ZM139.384 244.07C138.445 244.07 137.656 243.75 137.016 243.11C136.376 242.47 136.056 241.68 136.056 240.742V197.414C136.056 196.432 136.376 195.643 137.016 195.046C137.656 194.406 138.445 194.086 139.384 194.086H168.312C169.293 194.086 170.082 194.384 170.68 194.982C171.277 195.536 171.576 196.283 171.576 197.222C171.576 198.118 171.277 198.843 170.68 199.398C170.082 199.952 169.293 200.23 168.312 200.23H142.712V215.782H161.08C162.061 215.782 162.85 216.08 163.448 216.678C164.045 217.232 164.344 217.958 164.344 218.854C164.344 219.75 164.045 220.496 163.448 221.094C162.85 221.648 162.061 221.926 161.08 221.926H142.712V240.742C142.712 241.68 142.392 242.47 141.752 243.11C141.112 243.75 140.322 244.07 139.384 244.07ZM187.768 244.07C185.89 244.07 184.226 243.558 182.776 242.534C181.325 241.51 180.194 240.123 179.384 238.374C178.573 236.582 178.168 234.534 178.168 232.23V197.286C178.168 196.347 178.466 195.579 179.064 194.982C179.661 194.384 180.429 194.086 181.368 194.086C182.306 194.086 183.074 194.384 183.672 194.982C184.269 195.579 184.568 196.347 184.568 197.286V232.23C184.568 233.808 184.866 235.11 185.464 236.134C186.061 237.158 186.829 237.67 187.768 237.67H189.368C190.221 237.67 190.904 237.968 191.416 238.566C191.97 239.163 192.248 239.931 192.248 240.87C192.248 241.808 191.842 242.576 191.032 243.174C190.221 243.771 189.176 244.07 187.896 244.07H187.768ZM212.57 244.326C209.114 244.326 206.063 243.579 203.418 242.086C200.772 240.55 198.682 238.459 197.146 235.814C195.652 233.126 194.906 230.054 194.906 226.598C194.906 223.099 195.652 220.027 197.146 217.382C198.682 214.694 200.772 212.603 203.418 211.11C206.063 209.574 209.114 208.806 212.57 208.806C215.983 208.806 219.012 209.574 221.658 211.11C224.303 212.603 226.372 214.694 227.866 217.382C229.402 220.027 230.17 223.099 230.17 226.598C230.17 230.054 229.423 233.126 227.93 235.814C226.436 238.459 224.367 240.55 221.722 242.086C219.076 243.579 216.026 244.326 212.57 244.326ZM212.57 238.566C214.788 238.566 216.751 238.054 218.458 237.03C220.164 236.006 221.487 234.598 222.426 232.806C223.407 231.014 223.898 228.944 223.898 226.598C223.898 224.251 223.407 222.182 222.426 220.39C221.487 218.555 220.164 217.126 218.458 216.102C216.751 215.078 214.788 214.566 212.57 214.566C210.351 214.566 208.388 215.078 206.682 216.102C204.975 217.126 203.631 218.555 202.65 220.39C201.668 222.182 201.178 224.251 201.178 226.598C201.178 228.944 201.668 231.014 202.65 232.806C203.631 234.598 204.975 236.006 206.682 237.03C208.388 238.054 210.351 238.566 212.57 238.566ZM246.012 244.07C245.329 244.07 244.689 243.878 244.092 243.494C243.537 243.067 243.153 242.555 242.94 241.958L233.468 213.542C233.126 212.219 233.126 211.152 233.468 210.342C233.852 209.488 234.662 209.062 235.9 209.062C236.71 209.062 237.372 209.296 237.884 209.766C238.438 210.192 238.886 210.939 239.228 212.006L247.292 237.222H245.052L252.668 211.494C252.881 210.768 253.244 210.192 253.756 209.766C254.268 209.296 254.972 209.062 255.868 209.062C256.721 209.062 257.404 209.296 257.916 209.766C258.47 210.192 258.833 210.768 259.004 211.494L265.212 235.686H264.252L271.804 212.006C272.401 210.043 273.51 209.062 275.132 209.062C276.326 209.062 277.137 209.488 277.564 210.342C277.99 211.152 277.969 212.219 277.5 213.542L268.028 241.958C267.857 242.555 267.494 243.067 266.94 243.494C266.385 243.878 265.745 244.07 265.02 244.07C264.337 244.07 263.697 243.878 263.1 243.494C262.502 243.067 262.118 242.555 261.948 241.958L255.356 217.574H255.996L249.083 241.958C248.913 242.555 248.529 243.067 247.932 243.494C247.377 243.878 246.737 244.07 246.012 244.07Z" fill="black"/>
</svg>
